<mxfile host="65bd71144e">
    <diagram name="Page-1" id="wN41WLQ8_16FtnaSfH0I">
        <mxGraphModel dx="1066" dy="809" grid="1" gridSize="10" guides="1" tooltips="1" connect="1" arrows="1" fold="1" page="0" pageScale="1" pageWidth="850" pageHeight="1100" math="0" shadow="0" adaptiveColors="auto">
            <root>
                <mxCell id="0"/>
                <mxCell id="1" parent="0"/>
                <mxCell id="RoPoPxTWOO4gMcOZzk8h-1" value="" style="rounded=0;whiteSpace=wrap;html=1;" parent="1" vertex="1">
                    <mxGeometry x="200" y="210" width="1280" height="610" as="geometry"/>
                </mxCell>
                <mxCell id="WGLxeDknJsDXGYAkVjtm-1" value="mdl_local_ls_student_xp" style="shape=table;startSize=30;container=1;collapsible=1;childLayout=tableLayout;fixedRows=1;rowLines=0;fontStyle=1;align=center;resizeLast=1;html=1;" parent="1" vertex="1">
                    <mxGeometry x="260" y="260" width="270" height="330" as="geometry">
                        <mxRectangle x="320" y="310" width="200" height="30" as="alternateBounds"/>
                    </mxGeometry>
                </mxCell>
                <mxCell id="WGLxeDknJsDXGYAkVjtm-2" value="" style="shape=tableRow;horizontal=0;startSize=0;swimlaneHead=0;swimlaneBody=0;fillColor=none;collapsible=0;dropTarget=0;points=[[0,0.5],[1,0.5]];portConstraint=eastwest;top=0;left=0;right=0;bottom=1;" parent="WGLxeDknJsDXGYAkVjtm-1" vertex="1">
                    <mxGeometry y="30" width="270" height="30" as="geometry"/>
                </mxCell>
                <mxCell id="WGLxeDknJsDXGYAkVjtm-3" value="PK" style="shape=partialRectangle;connectable=0;fillColor=none;top=0;left=0;bottom=0;right=0;fontStyle=1;overflow=hidden;whiteSpace=wrap;html=1;" parent="WGLxeDknJsDXGYAkVjtm-2" vertex="1">
                    <mxGeometry width="30" height="30" as="geometry">
                        <mxRectangle width="30" height="30" as="alternateBounds"/>
                    </mxGeometry>
                </mxCell>
                <mxCell id="WGLxeDknJsDXGYAkVjtm-4" value="id" style="shape=partialRectangle;connectable=0;fillColor=none;top=0;left=0;bottom=0;right=0;align=left;spacingLeft=6;fontStyle=5;overflow=hidden;whiteSpace=wrap;html=1;" parent="WGLxeDknJsDXGYAkVjtm-2" vertex="1">
                    <mxGeometry x="30" width="240" height="30" as="geometry">
                        <mxRectangle width="240" height="30" as="alternateBounds"/>
                    </mxGeometry>
                </mxCell>
                <mxCell id="WGLxeDknJsDXGYAkVjtm-5" value="" style="shape=tableRow;horizontal=0;startSize=0;swimlaneHead=0;swimlaneBody=0;fillColor=none;collapsible=0;dropTarget=0;points=[[0,0.5],[1,0.5]];portConstraint=eastwest;top=0;left=0;right=0;bottom=0;" parent="WGLxeDknJsDXGYAkVjtm-1" vertex="1">
                    <mxGeometry y="60" width="270" height="30" as="geometry"/>
                </mxCell>
                <mxCell id="WGLxeDknJsDXGYAkVjtm-6" value="" style="shape=partialRectangle;connectable=0;fillColor=none;top=0;left=0;bottom=0;right=0;editable=1;overflow=hidden;whiteSpace=wrap;html=1;" parent="WGLxeDknJsDXGYAkVjtm-5" vertex="1">
                    <mxGeometry width="30" height="30" as="geometry">
                        <mxRectangle width="30" height="30" as="alternateBounds"/>
                    </mxGeometry>
                </mxCell>
                <mxCell id="WGLxeDknJsDXGYAkVjtm-7" value="&lt;div&gt;userid&lt;/div&gt;" style="shape=partialRectangle;connectable=0;fillColor=none;top=0;left=0;bottom=0;right=0;align=left;spacingLeft=6;overflow=hidden;whiteSpace=wrap;html=1;" parent="WGLxeDknJsDXGYAkVjtm-5" vertex="1">
                    <mxGeometry x="30" width="240" height="30" as="geometry">
                        <mxRectangle width="240" height="30" as="alternateBounds"/>
                    </mxGeometry>
                </mxCell>
                <mxCell id="WGLxeDknJsDXGYAkVjtm-8" value="" style="shape=tableRow;horizontal=0;startSize=0;swimlaneHead=0;swimlaneBody=0;fillColor=none;collapsible=0;dropTarget=0;points=[[0,0.5],[1,0.5]];portConstraint=eastwest;top=0;left=0;right=0;bottom=0;" parent="WGLxeDknJsDXGYAkVjtm-1" vertex="1">
                    <mxGeometry y="90" width="270" height="30" as="geometry"/>
                </mxCell>
                <mxCell id="WGLxeDknJsDXGYAkVjtm-9" value="" style="shape=partialRectangle;connectable=0;fillColor=none;top=0;left=0;bottom=0;right=0;editable=1;overflow=hidden;whiteSpace=wrap;html=1;" parent="WGLxeDknJsDXGYAkVjtm-8" vertex="1">
                    <mxGeometry width="30" height="30" as="geometry">
                        <mxRectangle width="30" height="30" as="alternateBounds"/>
                    </mxGeometry>
                </mxCell>
                <mxCell id="WGLxeDknJsDXGYAkVjtm-10" value="courseid" style="shape=partialRectangle;connectable=0;fillColor=none;top=0;left=0;bottom=0;right=0;align=left;spacingLeft=6;overflow=hidden;whiteSpace=wrap;html=1;" parent="WGLxeDknJsDXGYAkVjtm-8" vertex="1">
                    <mxGeometry x="30" width="240" height="30" as="geometry">
                        <mxRectangle width="240" height="30" as="alternateBounds"/>
                    </mxGeometry>
                </mxCell>
                <mxCell id="WGLxeDknJsDXGYAkVjtm-11" value="" style="shape=tableRow;horizontal=0;startSize=0;swimlaneHead=0;swimlaneBody=0;fillColor=none;collapsible=0;dropTarget=0;points=[[0,0.5],[1,0.5]];portConstraint=eastwest;top=0;left=0;right=0;bottom=0;" parent="WGLxeDknJsDXGYAkVjtm-1" vertex="1">
                    <mxGeometry y="120" width="270" height="30" as="geometry"/>
                </mxCell>
                <mxCell id="WGLxeDknJsDXGYAkVjtm-12" value="" style="shape=partialRectangle;connectable=0;fillColor=none;top=0;left=0;bottom=0;right=0;editable=1;overflow=hidden;whiteSpace=wrap;html=1;" parent="WGLxeDknJsDXGYAkVjtm-11" vertex="1">
                    <mxGeometry width="30" height="30" as="geometry">
                        <mxRectangle width="30" height="30" as="alternateBounds"/>
                    </mxGeometry>
                </mxCell>
                <mxCell id="WGLxeDknJsDXGYAkVjtm-13" value="quiz_xp" style="shape=partialRectangle;connectable=0;fillColor=none;top=0;left=0;bottom=0;right=0;align=left;spacingLeft=6;overflow=hidden;whiteSpace=wrap;html=1;" parent="WGLxeDknJsDXGYAkVjtm-11" vertex="1">
                    <mxGeometry x="30" width="240" height="30" as="geometry">
                        <mxRectangle width="240" height="30" as="alternateBounds"/>
                    </mxGeometry>
                </mxCell>
                <mxCell id="WGLxeDknJsDXGYAkVjtm-14" value="" style="shape=tableRow;horizontal=0;startSize=0;swimlaneHead=0;swimlaneBody=0;fillColor=none;collapsible=0;dropTarget=0;points=[[0,0.5],[1,0.5]];portConstraint=eastwest;top=0;left=0;right=0;bottom=0;" parent="WGLxeDknJsDXGYAkVjtm-1" vertex="1">
                    <mxGeometry y="150" width="270" height="30" as="geometry"/>
                </mxCell>
                <mxCell id="WGLxeDknJsDXGYAkVjtm-15" value="" style="shape=partialRectangle;connectable=0;fillColor=none;top=0;left=0;bottom=0;right=0;editable=1;overflow=hidden;whiteSpace=wrap;html=1;" parent="WGLxeDknJsDXGYAkVjtm-14" vertex="1">
                    <mxGeometry width="30" height="30" as="geometry">
                        <mxRectangle width="30" height="30" as="alternateBounds"/>
                    </mxGeometry>
                </mxCell>
                <mxCell id="WGLxeDknJsDXGYAkVjtm-16" value="exercise_xp" style="shape=partialRectangle;connectable=0;fillColor=none;top=0;left=0;bottom=0;right=0;align=left;spacingLeft=6;overflow=hidden;whiteSpace=wrap;html=1;" parent="WGLxeDknJsDXGYAkVjtm-14" vertex="1">
                    <mxGeometry x="30" width="240" height="30" as="geometry">
                        <mxRectangle width="240" height="30" as="alternateBounds"/>
                    </mxGeometry>
                </mxCell>
                <mxCell id="WGLxeDknJsDXGYAkVjtm-17" value="" style="shape=tableRow;horizontal=0;startSize=0;swimlaneHead=0;swimlaneBody=0;fillColor=none;collapsible=0;dropTarget=0;points=[[0,0.5],[1,0.5]];portConstraint=eastwest;top=0;left=0;right=0;bottom=0;" parent="WGLxeDknJsDXGYAkVjtm-1" vertex="1">
                    <mxGeometry y="180" width="270" height="30" as="geometry"/>
                </mxCell>
                <mxCell id="WGLxeDknJsDXGYAkVjtm-18" value="" style="shape=partialRectangle;connectable=0;fillColor=none;top=0;left=0;bottom=0;right=0;editable=1;overflow=hidden;whiteSpace=wrap;html=1;" parent="WGLxeDknJsDXGYAkVjtm-17" vertex="1">
                    <mxGeometry width="30" height="30" as="geometry">
                        <mxRectangle width="30" height="30" as="alternateBounds"/>
                    </mxGeometry>
                </mxCell>
                <mxCell id="WGLxeDknJsDXGYAkVjtm-19" value="bonus_xp" style="shape=partialRectangle;connectable=0;fillColor=none;top=0;left=0;bottom=0;right=0;align=left;spacingLeft=6;overflow=hidden;whiteSpace=wrap;html=1;" parent="WGLxeDknJsDXGYAkVjtm-17" vertex="1">
                    <mxGeometry x="30" width="240" height="30" as="geometry">
                        <mxRectangle width="240" height="30" as="alternateBounds"/>
                    </mxGeometry>
                </mxCell>
                <mxCell id="WGLxeDknJsDXGYAkVjtm-20" value="" style="shape=tableRow;horizontal=0;startSize=0;swimlaneHead=0;swimlaneBody=0;fillColor=none;collapsible=0;dropTarget=0;points=[[0,0.5],[1,0.5]];portConstraint=eastwest;top=0;left=0;right=0;bottom=0;" parent="WGLxeDknJsDXGYAkVjtm-1" vertex="1">
                    <mxGeometry y="210" width="270" height="30" as="geometry"/>
                </mxCell>
                <mxCell id="WGLxeDknJsDXGYAkVjtm-21" value="" style="shape=partialRectangle;connectable=0;fillColor=none;top=0;left=0;bottom=0;right=0;editable=1;overflow=hidden;whiteSpace=wrap;html=1;" parent="WGLxeDknJsDXGYAkVjtm-20" vertex="1">
                    <mxGeometry width="30" height="30" as="geometry">
                        <mxRectangle width="30" height="30" as="alternateBounds"/>
                    </mxGeometry>
                </mxCell>
                <mxCell id="WGLxeDknJsDXGYAkVjtm-22" value="total_xp" style="shape=partialRectangle;connectable=0;fillColor=none;top=0;left=0;bottom=0;right=0;align=left;spacingLeft=6;overflow=hidden;whiteSpace=wrap;html=1;" parent="WGLxeDknJsDXGYAkVjtm-20" vertex="1">
                    <mxGeometry x="30" width="240" height="30" as="geometry">
                        <mxRectangle width="240" height="30" as="alternateBounds"/>
                    </mxGeometry>
                </mxCell>
                <mxCell id="WGLxeDknJsDXGYAkVjtm-23" value="" style="shape=tableRow;horizontal=0;startSize=0;swimlaneHead=0;swimlaneBody=0;fillColor=none;collapsible=0;dropTarget=0;points=[[0,0.5],[1,0.5]];portConstraint=eastwest;top=0;left=0;right=0;bottom=0;" parent="WGLxeDknJsDXGYAkVjtm-1" vertex="1">
                    <mxGeometry y="240" width="270" height="30" as="geometry"/>
                </mxCell>
                <mxCell id="WGLxeDknJsDXGYAkVjtm-24" value="" style="shape=partialRectangle;connectable=0;fillColor=none;top=0;left=0;bottom=0;right=0;editable=1;overflow=hidden;whiteSpace=wrap;html=1;" parent="WGLxeDknJsDXGYAkVjtm-23" vertex="1">
                    <mxGeometry width="30" height="30" as="geometry">
                        <mxRectangle width="30" height="30" as="alternateBounds"/>
                    </mxGeometry>
                </mxCell>
                <mxCell id="WGLxeDknJsDXGYAkVjtm-25" value="rank" style="shape=partialRectangle;connectable=0;fillColor=none;top=0;left=0;bottom=0;right=0;align=left;spacingLeft=6;overflow=hidden;whiteSpace=wrap;html=1;" parent="WGLxeDknJsDXGYAkVjtm-23" vertex="1">
                    <mxGeometry x="30" width="240" height="30" as="geometry">
                        <mxRectangle width="240" height="30" as="alternateBounds"/>
                    </mxGeometry>
                </mxCell>
                <mxCell id="WGLxeDknJsDXGYAkVjtm-26" value="" style="shape=tableRow;horizontal=0;startSize=0;swimlaneHead=0;swimlaneBody=0;fillColor=none;collapsible=0;dropTarget=0;points=[[0,0.5],[1,0.5]];portConstraint=eastwest;top=0;left=0;right=0;bottom=0;" parent="WGLxeDknJsDXGYAkVjtm-1" vertex="1">
                    <mxGeometry y="270" width="270" height="30" as="geometry"/>
                </mxCell>
                <mxCell id="WGLxeDknJsDXGYAkVjtm-27" value="" style="shape=partialRectangle;connectable=0;fillColor=none;top=0;left=0;bottom=0;right=0;editable=1;overflow=hidden;whiteSpace=wrap;html=1;" parent="WGLxeDknJsDXGYAkVjtm-26" vertex="1">
                    <mxGeometry width="30" height="30" as="geometry">
                        <mxRectangle width="30" height="30" as="alternateBounds"/>
                    </mxGeometry>
                </mxCell>
                <mxCell id="WGLxeDknJsDXGYAkVjtm-28" value="timecreated" style="shape=partialRectangle;connectable=0;fillColor=none;top=0;left=0;bottom=0;right=0;align=left;spacingLeft=6;overflow=hidden;whiteSpace=wrap;html=1;" parent="WGLxeDknJsDXGYAkVjtm-26" vertex="1">
                    <mxGeometry x="30" width="240" height="30" as="geometry">
                        <mxRectangle width="240" height="30" as="alternateBounds"/>
                    </mxGeometry>
                </mxCell>
                <mxCell id="WGLxeDknJsDXGYAkVjtm-29" value="" style="shape=tableRow;horizontal=0;startSize=0;swimlaneHead=0;swimlaneBody=0;fillColor=none;collapsible=0;dropTarget=0;points=[[0,0.5],[1,0.5]];portConstraint=eastwest;top=0;left=0;right=0;bottom=0;" parent="WGLxeDknJsDXGYAkVjtm-1" vertex="1">
                    <mxGeometry y="300" width="270" height="30" as="geometry"/>
                </mxCell>
                <mxCell id="WGLxeDknJsDXGYAkVjtm-30" value="" style="shape=partialRectangle;connectable=0;fillColor=none;top=0;left=0;bottom=0;right=0;editable=1;overflow=hidden;whiteSpace=wrap;html=1;" parent="WGLxeDknJsDXGYAkVjtm-29" vertex="1">
                    <mxGeometry width="30" height="30" as="geometry">
                        <mxRectangle width="30" height="30" as="alternateBounds"/>
                    </mxGeometry>
                </mxCell>
                <mxCell id="WGLxeDknJsDXGYAkVjtm-31" value="timemodified" style="shape=partialRectangle;connectable=0;fillColor=none;top=0;left=0;bottom=0;right=0;align=left;spacingLeft=6;overflow=hidden;whiteSpace=wrap;html=1;" parent="WGLxeDknJsDXGYAkVjtm-29" vertex="1">
                    <mxGeometry x="30" width="240" height="30" as="geometry">
                        <mxRectangle width="240" height="30" as="alternateBounds"/>
                    </mxGeometry>
                </mxCell>
                <mxCell id="WGLxeDknJsDXGYAkVjtm-32" value="mdl_local_ls_student_xp" style="shape=table;startSize=30;container=1;collapsible=1;childLayout=tableLayout;fixedRows=1;rowLines=0;fontStyle=1;align=center;resizeLast=1;html=1;" parent="1" vertex="1">
                    <mxGeometry x="610" y="260" width="270" height="300" as="geometry">
                        <mxRectangle x="320" y="310" width="200" height="30" as="alternateBounds"/>
                    </mxGeometry>
                </mxCell>
                <mxCell id="WGLxeDknJsDXGYAkVjtm-33" value="" style="shape=tableRow;horizontal=0;startSize=0;swimlaneHead=0;swimlaneBody=0;fillColor=none;collapsible=0;dropTarget=0;points=[[0,0.5],[1,0.5]];portConstraint=eastwest;top=0;left=0;right=0;bottom=1;" parent="WGLxeDknJsDXGYAkVjtm-32" vertex="1">
                    <mxGeometry y="30" width="270" height="30" as="geometry"/>
                </mxCell>
                <mxCell id="WGLxeDknJsDXGYAkVjtm-34" value="PK" style="shape=partialRectangle;connectable=0;fillColor=none;top=0;left=0;bottom=0;right=0;fontStyle=1;overflow=hidden;whiteSpace=wrap;html=1;" parent="WGLxeDknJsDXGYAkVjtm-33" vertex="1">
                    <mxGeometry width="30" height="30" as="geometry">
                        <mxRectangle width="30" height="30" as="alternateBounds"/>
                    </mxGeometry>
                </mxCell>
                <mxCell id="WGLxeDknJsDXGYAkVjtm-35" value="id" style="shape=partialRectangle;connectable=0;fillColor=none;top=0;left=0;bottom=0;right=0;align=left;spacingLeft=6;fontStyle=5;overflow=hidden;whiteSpace=wrap;html=1;" parent="WGLxeDknJsDXGYAkVjtm-33" vertex="1">
                    <mxGeometry x="30" width="240" height="30" as="geometry">
                        <mxRectangle width="240" height="30" as="alternateBounds"/>
                    </mxGeometry>
                </mxCell>
                <mxCell id="WGLxeDknJsDXGYAkVjtm-36" value="" style="shape=tableRow;horizontal=0;startSize=0;swimlaneHead=0;swimlaneBody=0;fillColor=none;collapsible=0;dropTarget=0;points=[[0,0.5],[1,0.5]];portConstraint=eastwest;top=0;left=0;right=0;bottom=0;" parent="WGLxeDknJsDXGYAkVjtm-32" vertex="1">
                    <mxGeometry y="60" width="270" height="30" as="geometry"/>
                </mxCell>
                <mxCell id="WGLxeDknJsDXGYAkVjtm-37" value="" style="shape=partialRectangle;connectable=0;fillColor=none;top=0;left=0;bottom=0;right=0;editable=1;overflow=hidden;whiteSpace=wrap;html=1;" parent="WGLxeDknJsDXGYAkVjtm-36" vertex="1">
                    <mxGeometry width="30" height="30" as="geometry">
                        <mxRectangle width="30" height="30" as="alternateBounds"/>
                    </mxGeometry>
                </mxCell>
                <mxCell id="WGLxeDknJsDXGYAkVjtm-38" value="courseid" style="shape=partialRectangle;connectable=0;fillColor=none;top=0;left=0;bottom=0;right=0;align=left;spacingLeft=6;overflow=hidden;whiteSpace=wrap;html=1;" parent="WGLxeDknJsDXGYAkVjtm-36" vertex="1">
                    <mxGeometry x="30" width="240" height="30" as="geometry">
                        <mxRectangle width="240" height="30" as="alternateBounds"/>
                    </mxGeometry>
                </mxCell>
                <mxCell id="WGLxeDknJsDXGYAkVjtm-39" value="" style="shape=tableRow;horizontal=0;startSize=0;swimlaneHead=0;swimlaneBody=0;fillColor=none;collapsible=0;dropTarget=0;points=[[0,0.5],[1,0.5]];portConstraint=eastwest;top=0;left=0;right=0;bottom=0;" parent="WGLxeDknJsDXGYAkVjtm-32" vertex="1">
                    <mxGeometry y="90" width="270" height="30" as="geometry"/>
                </mxCell>
                <mxCell id="WGLxeDknJsDXGYAkVjtm-40" value="" style="shape=partialRectangle;connectable=0;fillColor=none;top=0;left=0;bottom=0;right=0;editable=1;overflow=hidden;whiteSpace=wrap;html=1;" parent="WGLxeDknJsDXGYAkVjtm-39" vertex="1">
                    <mxGeometry width="30" height="30" as="geometry">
                        <mxRectangle width="30" height="30" as="alternateBounds"/>
                    </mxGeometry>
                </mxCell>
                <mxCell id="WGLxeDknJsDXGYAkVjtm-41" value="quiz_base_xp" style="shape=partialRectangle;connectable=0;fillColor=none;top=0;left=0;bottom=0;right=0;align=left;spacingLeft=6;overflow=hidden;whiteSpace=wrap;html=1;" parent="WGLxeDknJsDXGYAkVjtm-39" vertex="1">
                    <mxGeometry x="30" width="240" height="30" as="geometry">
                        <mxRectangle width="240" height="30" as="alternateBounds"/>
                    </mxGeometry>
                </mxCell>
                <mxCell id="WGLxeDknJsDXGYAkVjtm-42" value="" style="shape=tableRow;horizontal=0;startSize=0;swimlaneHead=0;swimlaneBody=0;fillColor=none;collapsible=0;dropTarget=0;points=[[0,0.5],[1,0.5]];portConstraint=eastwest;top=0;left=0;right=0;bottom=0;" parent="WGLxeDknJsDXGYAkVjtm-32" vertex="1">
                    <mxGeometry y="120" width="270" height="30" as="geometry"/>
                </mxCell>
                <mxCell id="WGLxeDknJsDXGYAkVjtm-43" value="" style="shape=partialRectangle;connectable=0;fillColor=none;top=0;left=0;bottom=0;right=0;editable=1;overflow=hidden;whiteSpace=wrap;html=1;" parent="WGLxeDknJsDXGYAkVjtm-42" vertex="1">
                    <mxGeometry width="30" height="30" as="geometry">
                        <mxRectangle width="30" height="30" as="alternateBounds"/>
                    </mxGeometry>
                </mxCell>
                <mxCell id="WGLxeDknJsDXGYAkVjtm-44" value="exercise_base_xp" style="shape=partialRectangle;connectable=0;fillColor=none;top=0;left=0;bottom=0;right=0;align=left;spacingLeft=6;overflow=hidden;whiteSpace=wrap;html=1;" parent="WGLxeDknJsDXGYAkVjtm-42" vertex="1">
                    <mxGeometry x="30" width="240" height="30" as="geometry">
                        <mxRectangle width="240" height="30" as="alternateBounds"/>
                    </mxGeometry>
                </mxCell>
                <mxCell id="WGLxeDknJsDXGYAkVjtm-45" value="" style="shape=tableRow;horizontal=0;startSize=0;swimlaneHead=0;swimlaneBody=0;fillColor=none;collapsible=0;dropTarget=0;points=[[0,0.5],[1,0.5]];portConstraint=eastwest;top=0;left=0;right=0;bottom=0;" parent="WGLxeDknJsDXGYAkVjtm-32" vertex="1">
                    <mxGeometry y="150" width="270" height="30" as="geometry"/>
                </mxCell>
                <mxCell id="WGLxeDknJsDXGYAkVjtm-46" value="" style="shape=partialRectangle;connectable=0;fillColor=none;top=0;left=0;bottom=0;right=0;editable=1;overflow=hidden;whiteSpace=wrap;html=1;" parent="WGLxeDknJsDXGYAkVjtm-45" vertex="1">
                    <mxGeometry width="30" height="30" as="geometry">
                        <mxRectangle width="30" height="30" as="alternateBounds"/>
                    </mxGeometry>
                </mxCell>
                <mxCell id="WGLxeDknJsDXGYAkVjtm-47" value="forum_post_base_xp" style="shape=partialRectangle;connectable=0;fillColor=none;top=0;left=0;bottom=0;right=0;align=left;spacingLeft=6;overflow=hidden;whiteSpace=wrap;html=1;" parent="WGLxeDknJsDXGYAkVjtm-45" vertex="1">
                    <mxGeometry x="30" width="240" height="30" as="geometry">
                        <mxRectangle width="240" height="30" as="alternateBounds"/>
                    </mxGeometry>
                </mxCell>
                <mxCell id="WGLxeDknJsDXGYAkVjtm-48" value="" style="shape=tableRow;horizontal=0;startSize=0;swimlaneHead=0;swimlaneBody=0;fillColor=none;collapsible=0;dropTarget=0;points=[[0,0.5],[1,0.5]];portConstraint=eastwest;top=0;left=0;right=0;bottom=0;" parent="WGLxeDknJsDXGYAkVjtm-32" vertex="1">
                    <mxGeometry y="180" width="270" height="30" as="geometry"/>
                </mxCell>
                <mxCell id="WGLxeDknJsDXGYAkVjtm-49" value="" style="shape=partialRectangle;connectable=0;fillColor=none;top=0;left=0;bottom=0;right=0;editable=1;overflow=hidden;whiteSpace=wrap;html=1;" parent="WGLxeDknJsDXGYAkVjtm-48" vertex="1">
                    <mxGeometry width="30" height="30" as="geometry">
                        <mxRectangle width="30" height="30" as="alternateBounds"/>
                    </mxGeometry>
                </mxCell>
                <mxCell id="WGLxeDknJsDXGYAkVjtm-50" value="grade_multiplier" style="shape=partialRectangle;connectable=0;fillColor=none;top=0;left=0;bottom=0;right=0;align=left;spacingLeft=6;overflow=hidden;whiteSpace=wrap;html=1;" parent="WGLxeDknJsDXGYAkVjtm-48" vertex="1">
                    <mxGeometry x="30" width="240" height="30" as="geometry">
                        <mxRectangle width="240" height="30" as="alternateBounds"/>
                    </mxGeometry>
                </mxCell>
                <mxCell id="WGLxeDknJsDXGYAkVjtm-51" value="" style="shape=tableRow;horizontal=0;startSize=0;swimlaneHead=0;swimlaneBody=0;fillColor=none;collapsible=0;dropTarget=0;points=[[0,0.5],[1,0.5]];portConstraint=eastwest;top=0;left=0;right=0;bottom=0;" parent="WGLxeDknJsDXGYAkVjtm-32" vertex="1">
                    <mxGeometry y="210" width="270" height="30" as="geometry"/>
                </mxCell>
                <mxCell id="WGLxeDknJsDXGYAkVjtm-52" value="" style="shape=partialRectangle;connectable=0;fillColor=none;top=0;left=0;bottom=0;right=0;editable=1;overflow=hidden;whiteSpace=wrap;html=1;" parent="WGLxeDknJsDXGYAkVjtm-51" vertex="1">
                    <mxGeometry width="30" height="30" as="geometry">
                        <mxRectangle width="30" height="30" as="alternateBounds"/>
                    </mxGeometry>
                </mxCell>
                <mxCell id="WGLxeDknJsDXGYAkVjtm-53" value="enabled" style="shape=partialRectangle;connectable=0;fillColor=none;top=0;left=0;bottom=0;right=0;align=left;spacingLeft=6;overflow=hidden;whiteSpace=wrap;html=1;" parent="WGLxeDknJsDXGYAkVjtm-51" vertex="1">
                    <mxGeometry x="30" width="240" height="30" as="geometry">
                        <mxRectangle width="240" height="30" as="alternateBounds"/>
                    </mxGeometry>
                </mxCell>
                <mxCell id="WGLxeDknJsDXGYAkVjtm-54" value="" style="shape=tableRow;horizontal=0;startSize=0;swimlaneHead=0;swimlaneBody=0;fillColor=none;collapsible=0;dropTarget=0;points=[[0,0.5],[1,0.5]];portConstraint=eastwest;top=0;left=0;right=0;bottom=0;" parent="WGLxeDknJsDXGYAkVjtm-32" vertex="1">
                    <mxGeometry y="240" width="270" height="30" as="geometry"/>
                </mxCell>
                <mxCell id="WGLxeDknJsDXGYAkVjtm-55" value="" style="shape=partialRectangle;connectable=0;fillColor=none;top=0;left=0;bottom=0;right=0;editable=1;overflow=hidden;whiteSpace=wrap;html=1;" parent="WGLxeDknJsDXGYAkVjtm-54" vertex="1">
                    <mxGeometry width="30" height="30" as="geometry">
                        <mxRectangle width="30" height="30" as="alternateBounds"/>
                    </mxGeometry>
                </mxCell>
                <mxCell id="WGLxeDknJsDXGYAkVjtm-56" value="timecreated" style="shape=partialRectangle;connectable=0;fillColor=none;top=0;left=0;bottom=0;right=0;align=left;spacingLeft=6;overflow=hidden;whiteSpace=wrap;html=1;" parent="WGLxeDknJsDXGYAkVjtm-54" vertex="1">
                    <mxGeometry x="30" width="240" height="30" as="geometry">
                        <mxRectangle width="240" height="30" as="alternateBounds"/>
                    </mxGeometry>
                </mxCell>
                <mxCell id="WGLxeDknJsDXGYAkVjtm-57" value="" style="shape=tableRow;horizontal=0;startSize=0;swimlaneHead=0;swimlaneBody=0;fillColor=none;collapsible=0;dropTarget=0;points=[[0,0.5],[1,0.5]];portConstraint=eastwest;top=0;left=0;right=0;bottom=0;" parent="WGLxeDknJsDXGYAkVjtm-32" vertex="1">
                    <mxGeometry y="270" width="270" height="30" as="geometry"/>
                </mxCell>
                <mxCell id="WGLxeDknJsDXGYAkVjtm-58" value="" style="shape=partialRectangle;connectable=0;fillColor=none;top=0;left=0;bottom=0;right=0;editable=1;overflow=hidden;whiteSpace=wrap;html=1;" parent="WGLxeDknJsDXGYAkVjtm-57" vertex="1">
                    <mxGeometry width="30" height="30" as="geometry">
                        <mxRectangle width="30" height="30" as="alternateBounds"/>
                    </mxGeometry>
                </mxCell>
                <mxCell id="WGLxeDknJsDXGYAkVjtm-59" value="timemodified" style="shape=partialRectangle;connectable=0;fillColor=none;top=0;left=0;bottom=0;right=0;align=left;spacingLeft=6;overflow=hidden;whiteSpace=wrap;html=1;" parent="WGLxeDknJsDXGYAkVjtm-57" vertex="1">
                    <mxGeometry x="30" width="240" height="30" as="geometry">
                        <mxRectangle width="240" height="30" as="alternateBounds"/>
                    </mxGeometry>
                </mxCell>
                <mxCell id="WGLxeDknJsDXGYAkVjtm-63" value="mdl_local_ls_xp_history" style="shape=table;startSize=30;container=1;collapsible=1;childLayout=tableLayout;fixedRows=1;rowLines=0;fontStyle=1;align=center;resizeLast=1;html=1;" parent="1" vertex="1">
                    <mxGeometry x="980" y="260" width="270" height="270" as="geometry">
                        <mxRectangle x="320" y="310" width="200" height="30" as="alternateBounds"/>
                    </mxGeometry>
                </mxCell>
                <mxCell id="WGLxeDknJsDXGYAkVjtm-64" value="" style="shape=tableRow;horizontal=0;startSize=0;swimlaneHead=0;swimlaneBody=0;fillColor=none;collapsible=0;dropTarget=0;points=[[0,0.5],[1,0.5]];portConstraint=eastwest;top=0;left=0;right=0;bottom=1;" parent="WGLxeDknJsDXGYAkVjtm-63" vertex="1">
                    <mxGeometry y="30" width="270" height="30" as="geometry"/>
                </mxCell>
                <mxCell id="WGLxeDknJsDXGYAkVjtm-65" value="PK" style="shape=partialRectangle;connectable=0;fillColor=none;top=0;left=0;bottom=0;right=0;fontStyle=1;overflow=hidden;whiteSpace=wrap;html=1;" parent="WGLxeDknJsDXGYAkVjtm-64" vertex="1">
                    <mxGeometry width="30" height="30" as="geometry">
                        <mxRectangle width="30" height="30" as="alternateBounds"/>
                    </mxGeometry>
                </mxCell>
                <mxCell id="WGLxeDknJsDXGYAkVjtm-66" value="id" style="shape=partialRectangle;connectable=0;fillColor=none;top=0;left=0;bottom=0;right=0;align=left;spacingLeft=6;fontStyle=5;overflow=hidden;whiteSpace=wrap;html=1;" parent="WGLxeDknJsDXGYAkVjtm-64" vertex="1">
                    <mxGeometry x="30" width="240" height="30" as="geometry">
                        <mxRectangle width="240" height="30" as="alternateBounds"/>
                    </mxGeometry>
                </mxCell>
                <mxCell id="WGLxeDknJsDXGYAkVjtm-67" value="" style="shape=tableRow;horizontal=0;startSize=0;swimlaneHead=0;swimlaneBody=0;fillColor=none;collapsible=0;dropTarget=0;points=[[0,0.5],[1,0.5]];portConstraint=eastwest;top=0;left=0;right=0;bottom=0;" parent="WGLxeDknJsDXGYAkVjtm-63" vertex="1">
                    <mxGeometry y="60" width="270" height="30" as="geometry"/>
                </mxCell>
                <mxCell id="WGLxeDknJsDXGYAkVjtm-68" value="" style="shape=partialRectangle;connectable=0;fillColor=none;top=0;left=0;bottom=0;right=0;editable=1;overflow=hidden;whiteSpace=wrap;html=1;" parent="WGLxeDknJsDXGYAkVjtm-67" vertex="1">
                    <mxGeometry width="30" height="30" as="geometry">
                        <mxRectangle width="30" height="30" as="alternateBounds"/>
                    </mxGeometry>
                </mxCell>
                <mxCell id="WGLxeDknJsDXGYAkVjtm-69" value="userid" style="shape=partialRectangle;connectable=0;fillColor=none;top=0;left=0;bottom=0;right=0;align=left;spacingLeft=6;overflow=hidden;whiteSpace=wrap;html=1;" parent="WGLxeDknJsDXGYAkVjtm-67" vertex="1">
                    <mxGeometry x="30" width="240" height="30" as="geometry">
                        <mxRectangle width="240" height="30" as="alternateBounds"/>
                    </mxGeometry>
                </mxCell>
                <mxCell id="WGLxeDknJsDXGYAkVjtm-70" value="" style="shape=tableRow;horizontal=0;startSize=0;swimlaneHead=0;swimlaneBody=0;fillColor=none;collapsible=0;dropTarget=0;points=[[0,0.5],[1,0.5]];portConstraint=eastwest;top=0;left=0;right=0;bottom=0;" parent="WGLxeDknJsDXGYAkVjtm-63" vertex="1">
                    <mxGeometry y="90" width="270" height="30" as="geometry"/>
                </mxCell>
                <mxCell id="WGLxeDknJsDXGYAkVjtm-71" value="" style="shape=partialRectangle;connectable=0;fillColor=none;top=0;left=0;bottom=0;right=0;editable=1;overflow=hidden;whiteSpace=wrap;html=1;" parent="WGLxeDknJsDXGYAkVjtm-70" vertex="1">
                    <mxGeometry width="30" height="30" as="geometry">
                        <mxRectangle width="30" height="30" as="alternateBounds"/>
                    </mxGeometry>
                </mxCell>
                <mxCell id="WGLxeDknJsDXGYAkVjtm-72" value="courseid" style="shape=partialRectangle;connectable=0;fillColor=none;top=0;left=0;bottom=0;right=0;align=left;spacingLeft=6;overflow=hidden;whiteSpace=wrap;html=1;" parent="WGLxeDknJsDXGYAkVjtm-70" vertex="1">
                    <mxGeometry x="30" width="240" height="30" as="geometry">
                        <mxRectangle width="240" height="30" as="alternateBounds"/>
                    </mxGeometry>
                </mxCell>
                <mxCell id="WGLxeDknJsDXGYAkVjtm-73" value="" style="shape=tableRow;horizontal=0;startSize=0;swimlaneHead=0;swimlaneBody=0;fillColor=none;collapsible=0;dropTarget=0;points=[[0,0.5],[1,0.5]];portConstraint=eastwest;top=0;left=0;right=0;bottom=0;" parent="WGLxeDknJsDXGYAkVjtm-63" vertex="1">
                    <mxGeometry y="120" width="270" height="30" as="geometry"/>
                </mxCell>
                <mxCell id="WGLxeDknJsDXGYAkVjtm-74" value="" style="shape=partialRectangle;connectable=0;fillColor=none;top=0;left=0;bottom=0;right=0;editable=1;overflow=hidden;whiteSpace=wrap;html=1;" parent="WGLxeDknJsDXGYAkVjtm-73" vertex="1">
                    <mxGeometry width="30" height="30" as="geometry">
                        <mxRectangle width="30" height="30" as="alternateBounds"/>
                    </mxGeometry>
                </mxCell>
                <mxCell id="WGLxeDknJsDXGYAkVjtm-75" value="activity_type" style="shape=partialRectangle;connectable=0;fillColor=none;top=0;left=0;bottom=0;right=0;align=left;spacingLeft=6;overflow=hidden;whiteSpace=wrap;html=1;" parent="WGLxeDknJsDXGYAkVjtm-73" vertex="1">
                    <mxGeometry x="30" width="240" height="30" as="geometry">
                        <mxRectangle width="240" height="30" as="alternateBounds"/>
                    </mxGeometry>
                </mxCell>
                <mxCell id="WGLxeDknJsDXGYAkVjtm-76" value="" style="shape=tableRow;horizontal=0;startSize=0;swimlaneHead=0;swimlaneBody=0;fillColor=none;collapsible=0;dropTarget=0;points=[[0,0.5],[1,0.5]];portConstraint=eastwest;top=0;left=0;right=0;bottom=0;" parent="WGLxeDknJsDXGYAkVjtm-63" vertex="1">
                    <mxGeometry y="150" width="270" height="30" as="geometry"/>
                </mxCell>
                <mxCell id="WGLxeDknJsDXGYAkVjtm-77" value="" style="shape=partialRectangle;connectable=0;fillColor=none;top=0;left=0;bottom=0;right=0;editable=1;overflow=hidden;whiteSpace=wrap;html=1;" parent="WGLxeDknJsDXGYAkVjtm-76" vertex="1">
                    <mxGeometry width="30" height="30" as="geometry">
                        <mxRectangle width="30" height="30" as="alternateBounds"/>
                    </mxGeometry>
                </mxCell>
                <mxCell id="WGLxeDknJsDXGYAkVjtm-78" value="activity_id" style="shape=partialRectangle;connectable=0;fillColor=none;top=0;left=0;bottom=0;right=0;align=left;spacingLeft=6;overflow=hidden;whiteSpace=wrap;html=1;" parent="WGLxeDknJsDXGYAkVjtm-76" vertex="1">
                    <mxGeometry x="30" width="240" height="30" as="geometry">
                        <mxRectangle width="240" height="30" as="alternateBounds"/>
                    </mxGeometry>
                </mxCell>
                <mxCell id="WGLxeDknJsDXGYAkVjtm-79" value="" style="shape=tableRow;horizontal=0;startSize=0;swimlaneHead=0;swimlaneBody=0;fillColor=none;collapsible=0;dropTarget=0;points=[[0,0.5],[1,0.5]];portConstraint=eastwest;top=0;left=0;right=0;bottom=0;" parent="WGLxeDknJsDXGYAkVjtm-63" vertex="1">
                    <mxGeometry y="180" width="270" height="30" as="geometry"/>
                </mxCell>
                <mxCell id="WGLxeDknJsDXGYAkVjtm-80" value="" style="shape=partialRectangle;connectable=0;fillColor=none;top=0;left=0;bottom=0;right=0;editable=1;overflow=hidden;whiteSpace=wrap;html=1;" parent="WGLxeDknJsDXGYAkVjtm-79" vertex="1">
                    <mxGeometry width="30" height="30" as="geometry">
                        <mxRectangle width="30" height="30" as="alternateBounds"/>
                    </mxGeometry>
                </mxCell>
                <mxCell id="WGLxeDknJsDXGYAkVjtm-81" value="xp_earned" style="shape=partialRectangle;connectable=0;fillColor=none;top=0;left=0;bottom=0;right=0;align=left;spacingLeft=6;overflow=hidden;whiteSpace=wrap;html=1;" parent="WGLxeDknJsDXGYAkVjtm-79" vertex="1">
                    <mxGeometry x="30" width="240" height="30" as="geometry">
                        <mxRectangle width="240" height="30" as="alternateBounds"/>
                    </mxGeometry>
                </mxCell>
                <mxCell id="WGLxeDknJsDXGYAkVjtm-82" value="" style="shape=tableRow;horizontal=0;startSize=0;swimlaneHead=0;swimlaneBody=0;fillColor=none;collapsible=0;dropTarget=0;points=[[0,0.5],[1,0.5]];portConstraint=eastwest;top=0;left=0;right=0;bottom=0;" parent="WGLxeDknJsDXGYAkVjtm-63" vertex="1">
                    <mxGeometry y="210" width="270" height="30" as="geometry"/>
                </mxCell>
                <mxCell id="WGLxeDknJsDXGYAkVjtm-83" value="" style="shape=partialRectangle;connectable=0;fillColor=none;top=0;left=0;bottom=0;right=0;editable=1;overflow=hidden;whiteSpace=wrap;html=1;" parent="WGLxeDknJsDXGYAkVjtm-82" vertex="1">
                    <mxGeometry width="30" height="30" as="geometry">
                        <mxRectangle width="30" height="30" as="alternateBounds"/>
                    </mxGeometry>
                </mxCell>
                <mxCell id="WGLxeDknJsDXGYAkVjtm-84" value="reason" style="shape=partialRectangle;connectable=0;fillColor=none;top=0;left=0;bottom=0;right=0;align=left;spacingLeft=6;overflow=hidden;whiteSpace=wrap;html=1;" parent="WGLxeDknJsDXGYAkVjtm-82" vertex="1">
                    <mxGeometry x="30" width="240" height="30" as="geometry">
                        <mxRectangle width="240" height="30" as="alternateBounds"/>
                    </mxGeometry>
                </mxCell>
                <mxCell id="WGLxeDknJsDXGYAkVjtm-85" value="" style="shape=tableRow;horizontal=0;startSize=0;swimlaneHead=0;swimlaneBody=0;fillColor=none;collapsible=0;dropTarget=0;points=[[0,0.5],[1,0.5]];portConstraint=eastwest;top=0;left=0;right=0;bottom=0;" parent="WGLxeDknJsDXGYAkVjtm-63" vertex="1">
                    <mxGeometry y="240" width="270" height="30" as="geometry"/>
                </mxCell>
                <mxCell id="WGLxeDknJsDXGYAkVjtm-86" value="" style="shape=partialRectangle;connectable=0;fillColor=none;top=0;left=0;bottom=0;right=0;editable=1;overflow=hidden;whiteSpace=wrap;html=1;" parent="WGLxeDknJsDXGYAkVjtm-85" vertex="1">
                    <mxGeometry width="30" height="30" as="geometry">
                        <mxRectangle width="30" height="30" as="alternateBounds"/>
                    </mxGeometry>
                </mxCell>
                <mxCell id="WGLxeDknJsDXGYAkVjtm-87" value="timecreated" style="shape=partialRectangle;connectable=0;fillColor=none;top=0;left=0;bottom=0;right=0;align=left;spacingLeft=6;overflow=hidden;whiteSpace=wrap;html=1;" parent="WGLxeDknJsDXGYAkVjtm-85" vertex="1">
                    <mxGeometry x="30" width="240" height="30" as="geometry">
                        <mxRectangle width="240" height="30" as="alternateBounds"/>
                    </mxGeometry>
                </mxCell>
            </root>
        </mxGraphModel>
    </diagram>
</mxfile>